<svg xmlns="http://www.w3.org/2000/svg" viewBox="0 0 900 520" role="img" aria-label="Early Elizabethan England header">
  <defs>
    <linearGradient id="sky" x1="0" y1="0" x2="1" y2="1">
      <stop offset="0" stop-color="#31105c"/>
      <stop offset="0.55" stop-color="#9c2f53"/>
      <stop offset="1" stop-color="#f29f32"/>
    </linearGradient>
    <radialGradient id="sun" cx="72%" cy="34%" r="38%">
      <stop offset="0" stop-color="#ffd783" stop-opacity=".82"/>
      <stop offset=".42" stop-color="#ff7b36" stop-opacity=".34"/>
      <stop offset="1" stop-color="#0a0f22" stop-opacity="0"/>
    </radialGradient>
  </defs>
  <rect width="900" height="520" fill="#0a0f22"/>
  <rect width="900" height="520" fill="url(#sky)"/>
  <rect width="900" height="520" fill="url(#sun)"/>
  <path d="M0 350 C110 312 166 330 250 295 C360 250 470 286 575 242 C705 188 808 214 900 174 L900 520 L0 520 Z" fill="#090d1c" opacity=".55"/>
  <path d="M80 355 h720 v165 H80z" fill="#090d1c"/>
  <path d="M128 260 h120 v260 H128zM652 260h120v260H652z" fill="#0b1024"/>
  <path d="M188 188 l86 90 H102zM712 188 l86 90H626z" fill="#111938"/>
  <path d="M314 295 h272 v225H314z" fill="#111938"/>
  <path d="M450 176 l158 142H292z" fill="#141d3f"/>
  <path d="M370 338 h44v86h-44zM486 338h44v86h-44zM432 352h36v168h-36z" fill="#f5b700" opacity=".88"/>
  <path d="M118 392h674M130 448h640" stroke="#f5b700" stroke-opacity=".18" stroke-width="5"/>
  <circle cx="450" cy="120" r="54" fill="none" stroke="#f5b700" stroke-width="8" opacity=".75"/>
  <path d="M450 48v144M378 120h144" stroke="#f5b700" stroke-width="7" stroke-linecap="round" opacity=".78"/>
  <rect width="900" height="520" fill="#020510" opacity=".18"/>
</svg>
