<svg xmlns="http://www.w3.org/2000/svg" viewBox="0 0 900 520" role="img" aria-label="Early Elizabethan England header">
  <defs>
    <radialGradient id="warmGlow" cx="49%" cy="39%" r="58%">
      <stop offset="0" stop-color="#8c5a22"/>
      <stop offset=".55" stop-color="#39210e"/>
      <stop offset="1" stop-color="#030201"/>
    </radialGradient>
    <radialGradient id="faceLight" cx="49%" cy="25%" r="18%">
      <stop offset="0" stop-color="#d4a35d" stop-opacity=".9"/>
      <stop offset=".68" stop-color="#9a6427" stop-opacity=".24"/>
      <stop offset="1" stop-color="#000" stop-opacity="0"/>
    </radialGradient>
    <linearGradient id="parchment" x1="0" x2="1" y1="0" y2="1">
      <stop offset="0" stop-color="#7a4c1c" stop-opacity=".7"/>
      <stop offset=".48" stop-color="#c58b3b" stop-opacity=".42"/>
      <stop offset="1" stop-color="#1f1208" stop-opacity=".84"/>
    </linearGradient>
    <filter id="grain">
      <feTurbulence type="fractalNoise" baseFrequency=".9" numOctaves="3" stitchTiles="stitch"/>
      <feColorMatrix type="saturate" values="0"/>
      <feComponentTransfer>
        <feFuncA type="table" tableValues="0 .18"/>
      </feComponentTransfer>
    </filter>
    <filter id="softShadow" x="-30%" y="-30%" width="160%" height="160%">
      <feDropShadow dx="0" dy="10" stdDeviation="18" flood-color="#000" flood-opacity=".65"/>
    </filter>
  </defs>

  <rect width="900" height="520" fill="#080401"/>
  <rect width="900" height="520" fill="url(#warmGlow)"/>
  <rect x="174" y="28" width="552" height="188" rx="8" fill="url(#parchment)" opacity=".45"/>
  <path d="M250 42 C342 70 428 52 516 76 C586 95 646 76 730 106" fill="none" stroke="#2c1809" stroke-width="6" opacity=".38"/>
  <path d="M230 105 C316 84 370 128 456 110 C544 92 614 122 704 96" fill="none" stroke="#2c1809" stroke-width="5" opacity=".32"/>
  <path d="M248 152 C340 134 438 166 532 148 C610 134 676 158 752 146" fill="none" stroke="#2c1809" stroke-width="5" opacity=".28"/>

  <g fill="none" stroke="#1c1007" stroke-width="3" opacity=".42">
    <path d="M566 30 c-22 36 16 53-6 84 c-21 30-72 16-86 55 c-11 30 30 46 12 75"/>
    <path d="M628 42 c-35 24-12 55-40 76 c-36 28-18 64-54 82"/>
    <path d="M692 48 c-20 30-9 58-36 86 c-21 22-5 54-28 80"/>
    <path d="M748 72 c-34 8-55 30-76 56 c-29 37-5 66-40 92"/>
  </g>

  <g transform="translate(92 116)" filter="url(#softShadow)" opacity=".8">
    <path d="M16 190 c58-16 128-15 188 0 l-30 33 H48z" fill="#140b04"/>
    <path d="M72 28 v166M124 0v199M168 54v141" stroke="#1b0e05" stroke-width="8" stroke-linecap="round"/>
    <path d="M80 44 C134 60 146 96 82 120Z" fill="#4f2d10"/>
    <path d="M134 18 C202 42 214 110 136 146Z" fill="#5b3515"/>
    <path d="M176 68 C226 88 236 138 178 160Z" fill="#4a2b10"/>
    <path d="M76 44 C50 78 50 102 80 120M130 18 C90 74 92 108 136 146M172 68 C146 102 148 136 178 160" fill="#b07a35" opacity=".32"/>
    <path d="M38 214 c52 16 114 16 164 0" fill="none" stroke="#9d6727" stroke-width="5" opacity=".5"/>
  </g>
  <g transform="translate(220 150) scale(.58)" opacity=".55">
    <path d="M16 190 c58-16 128-15 188 0 l-30 33 H48z" fill="#100903"/>
    <path d="M72 28 v166M124 0v199M168 54v141" stroke="#130a04" stroke-width="8" stroke-linecap="round"/>
    <path d="M80 44 C134 60 146 96 82 120Z" fill="#5a3515"/>
    <path d="M134 18 C202 42 214 110 136 146Z" fill="#603914"/>
    <path d="M176 68 C226 88 236 138 178 160Z" fill="#513011"/>
  </g>

  <g transform="translate(650 76)" opacity=".68">
    <path d="M0 184 h246 v150 H0z" fill="#0d0703"/>
    <path d="M26 142 h58 v42H26zM104 112 h62v72h-62zM184 138h42v46h-42z" fill="#120904"/>
    <path d="M135 56 c52 20 50 74 50 74 h-102 s-2-54 52-74Z" fill="#120904"/>
    <path d="M130 18 h12 v42 h-12zM121 22h30" stroke="#120904" stroke-width="8"/>
    <path d="M20 140 v-76M42 140V82M70 140V62M212 140V42" stroke="#120904" stroke-width="8"/>
  </g>

  <g filter="url(#softShadow)">
    <path d="M434 108 c-70 12-96 81-73 146 c-62 42-96 116-112 228 h384 c-18-126-54-190-116-228 c20-72-16-135-83-146Z" fill="#2b1608"/>
    <path d="M328 228 c22-78 76-126 120-126 c50 0 104 48 124 126 c-72 24-168 24-244 0Z" fill="#d2a263" opacity=".18"/>
    <path d="M342 244 c-48 38-74 100-88 218 h374 c-18-118-42-178-90-218 c-36 46-156 48-196 0Z" fill="#3b1e09"/>
    <path d="M308 292 c86 34 184 36 276 2 c22 42 38 98 48 168 h-386 c12-72 32-128 62-170Z" fill="#5d3512" opacity=".78"/>

    <g fill="#caa46c" opacity=".72">
      <path d="M326 220 l-44 28 l56 12zM354 234 l-52 44 l70-4zM392 244 l-42 58 l62-18zM440 250 l-20 66 l48-52zM488 244 l42 58 l-62-18zM526 234 l52 44 l-70-4zM554 220 l44 28 l-56 12z"/>
    </g>
    <path d="M364 206 c18 58 134 60 154 0 c-20 30-132 32-154 0Z" fill="#e2c08b" opacity=".65"/>

    <ellipse cx="441" cy="132" rx="60" ry="50" fill="#51240c"/>
    <circle cx="392" cy="116" r="19" fill="#5d2a0e"/>
    <circle cx="412" cy="82" r="20" fill="#5d2a0e"/>
    <circle cx="452" cy="72" r="24" fill="#5d2a0e"/>
    <circle cx="486" cy="98" r="22" fill="#5d2a0e"/>
    <ellipse cx="442" cy="148" rx="42" ry="58" fill="#c69258"/>
    <path d="M408 128 c22-22 52-26 76 0 c-12-42-66-50-76 0Z" fill="#4a210b"/>
    <path d="M414 152 c12 6 40 6 54 0M426 180 c12 8 28 8 40 0" stroke="#3a1b0a" stroke-width="4" opacity=".55" fill="none"/>
    <circle cx="426" cy="145" r="4" fill="#2c1408"/>
    <circle cx="462" cy="145" r="4" fill="#2c1408"/>

    <path d="M390 78 l22-36 l24 32 l28-44 l22 46 l28-30 l-8 52 c-36-18-76-20-116-2Z" fill="#8f5d20"/>
    <circle cx="412" cy="44" r="7" fill="#d8a93a"/>
    <circle cx="464" cy="32" r="7" fill="#d8a93a"/>
    <circle cx="514" cy="48" r="6" fill="#d8a93a"/>

    <path d="M526 130 l82 318" stroke="#1a0d05" stroke-width="9" stroke-linecap="round"/>
    <path d="M515 120 l22-16 l12 24 l-20 14z" fill="#b77a28"/>
  </g>
  <rect width="900" height="520" fill="url(#faceLight)"/>

  <g opacity=".62">
    <path d="M90 294 h184 l34 48 v82 H58v-82z" fill="#170c04"/>
    <path d="M82 336 h206M100 374h168" stroke="#8f5d20" stroke-width="4" opacity=".45"/>
    <circle cx="137" cy="388" r="8" fill="#8f5d20"/><circle cx="178" cy="390" r="8" fill="#8f5d20"/><circle cx="222" cy="388" r="8" fill="#8f5d20"/>
  </g>
  <g transform="translate(320 360)" opacity=".86">
    <ellipse cx="50" cy="48" rx="42" ry="50" fill="#160b04"/>
    <circle cx="50" cy="18" r="24" fill="#a66d31"/>
    <path d="M16 52 c34 18 68 18 102 0 v96 H16z" fill="#1a0d05"/>
    <path d="M92 78 h156 v50 H92z" fill="#c2934d" opacity=".5"/>
    <path d="M104 92 h118M104 110h96" stroke="#2a1608" stroke-width="3" opacity=".55"/>
    <path d="M112 74 l58-30" stroke="#c2934d" stroke-width="5" stroke-linecap="round"/>
  </g>
  <g transform="translate(620 350)" opacity=".66">
    <path d="M0 88 h146 v30 H0zM10 54h130v34H10zM22 18h108v36H22z" fill="#170c04"/>
    <path d="M30 40h74M20 76h86M12 106h90" stroke="#8b5a20" stroke-width="3" opacity=".5"/>
  </g>

  <g fill="#090501" opacity=".72">
    <path d="M705 338 c20 4 30 24 24 46 h-50 c-6-23 5-43 26-46Z"/>
    <path d="M730 386 c52 14 78 44 82 98 h-118 c4-48 12-78 36-98Z"/>
    <path d="M805 328 c16 4 24 19 20 36 h-40 c-4-18 4-33 20-36Z"/>
    <path d="M828 368 c36 14 54 46 56 100 h-94 c3-49 12-82 38-100Z"/>
    <path d="M72 426 c112-20 208-16 302 18 v76H72z"/>
  </g>

  <g opacity=".52">
    <rect x="254" y="44" width="126" height="66" rx="2" fill="#9b6a2c"/>
    <path d="M276 66 c28-12 46-8 78-2M272 84 h74M286 98 h58" stroke="#1a0d05" stroke-width="3" stroke-linecap="round"/>
  </g>

  <rect width="900" height="520" filter="url(#grain)"/>
  <rect width="900" height="520" fill="#000" opacity=".18"/>
  <rect x="-70" y="-50" width="1040" height="640" fill="none" stroke="#000" stroke-width="120" opacity=".68"/>
</svg>
