<svg xmlns="http://www.w3.org/2000/svg" viewBox="0 0 1000 1000" role="img" aria-labelledby="title desc"><title id="title">Black bile</title><desc id="desc">Black bile was believed to be cold and dry.</desc><rect width="1000" height="1000" fill="#08090d"/><path d="M160 180h640v640A640 640 0 0 1 160 180Z" fill="#e4cfa4" stroke="#9b7845" stroke-width="16"/><path d="M190 210h580v580A580 580 0 0 1 190 210Z" fill="none" stroke="#25211d" stroke-width="10"/><text x="480" y="350" text-anchor="middle" font-family="Georgia,serif" font-size="84" font-weight="700" fill="#17110c">Black bile</text><path d="M305 405h350" stroke="#25211d" stroke-width="6"/><text x="480" y="485" text-anchor="middle" font-family="Georgia,serif" font-size="56" fill="#17110c">cold + dry</text><g transform="translate(480 690)"><path d="M-90-120h180l30 55v210H-120V-65Z" fill="#24211e" stroke="#111" stroke-width="10"/><rect x="-55" y="-185" width="110" height="75" rx="18" fill="#38332e" stroke="#111" stroke-width="10"/><rect x="-75" y="-205" width="150" height="30" rx="14" fill="#504940" stroke="#111" stroke-width="9"/><path d="M-92 10h184" stroke="#71675c" stroke-width="12" opacity=".7"/></g><g fill="#292520"><circle cx="280" cy="615" r="22"/><circle cx="690" cy="600" r="30"/><circle cx="310" cy="760" r="14"/><circle cx="700" cy="760" r="16"/></g></svg>