<svg xmlns="http://www.w3.org/2000/svg" viewBox="0 0 1000 1000" role="img" aria-labelledby="title desc"><title id="title">Yellow bile</title><desc id="desc">Yellow bile was believed to be hot and dry.</desc><rect width="1000" height="1000" fill="#08090d"/><path d="M200 180h640v640A640 640 0 0 1 200 180Z" fill="#ead7aa" stroke="#b78a45" stroke-width="16"/><path d="M230 210h580v580A580 580 0 0 1 230 210Z" fill="none" stroke="#b88316" stroke-width="10"/><text x="525" y="350" text-anchor="middle" font-family="Georgia,serif" font-size="82" font-weight="700" fill="#17110c">Yellow bile</text><path d="M350 405h350" stroke="#b88316" stroke-width="6"/><text x="525" y="485" text-anchor="middle" font-family="Georgia,serif" font-size="56" fill="#17110c">hot + dry</text><g transform="translate(525 665)"><circle r="105" fill="#d5a021" stroke="#8a6212" stroke-width="10"/><g fill="#d5a021" stroke="#8a6212" stroke-width="7"><path d="M0-180 28-120H-28Z"/><path d="M127-127 105-62 62-105Z"/><path d="M180 0 120 28V-28Z"/><path d="M127 127 62 105 105 62Z"/><path d="M0 180-28 120H28Z"/><path d="M-127 127-105 62-62 105Z"/><path d="M-180 0-120-28V28Z"/><path d="M-127-127-62-105-105-62Z"/></g><circle cx="-38" cy="-18" r="8" fill="#5c4210"/><circle cx="38" cy="-18" r="8" fill="#5c4210"/><path d="M-35 42q35 20 70 0" fill="none" stroke="#5c4210" stroke-width="8" stroke-linecap="round"/></g></svg>