<svg xmlns="http://www.w3.org/2000/svg" viewBox="0 0 1000 1000" role="img" aria-labelledby="title desc"><title id="title">Blood</title><desc id="desc">Blood was believed to be hot and wet.</desc><rect width="1000" height="1000" fill="#08090d"/><path d="M160 820V180h640a640 640 0 0 1-640 640Z" fill="#e8d2a5" stroke="#b78a45" stroke-width="16"/><path d="M190 790V210h580a580 580 0 0 1-580 580Z" fill="none" stroke="#8f241b" stroke-width="10"/><text x="475" y="350" text-anchor="middle" font-family="Georgia,serif" font-size="92" font-weight="700" fill="#8f241b">Blood</text><path d="M300 405h350" stroke="#8f241b" stroke-width="6"/><text x="475" y="485" text-anchor="middle" font-family="Georgia,serif" font-size="56" fill="#17110c">hot + wet</text><path d="M475 610c-70-105-205-30-145 85 42 80 145 145 145 145s103-65 145-145c60-115-75-190-145-85Z" fill="#9d2d22" stroke="#5b1813" stroke-width="10"/><path d="M470 620c-12-70 40-118 70-150" fill="none" stroke="#5b1813" stroke-width="12" stroke-linecap="round"/><g fill="#9d2d22"><path d="M290 585c0 28-20 46-42 46s-42-18-42-46c0-24 42-72 42-72s42 48 42 72Z"/><path d="M745 585c0 28-20 46-42 46s-42-18-42-46c0-24 42-72 42-72s42 48 42 72Z"/></g></svg>