<svg xmlns="http://www.w3.org/2000/svg" viewBox="0 0 1000 1000" role="img" aria-labelledby="title desc"><title id="title">Phlegm</title><desc id="desc">Phlegm was believed to be cold and wet.</desc><rect width="1000" height="1000" fill="#08090d"/><path d="M200 180h640v640A640 640 0 0 1 200 180Z" fill="#e6d2a7" stroke="#9a7d4f" stroke-width="16"/><path d="M230 210h580v580A580 580 0 0 1 230 210Z" fill="none" stroke="#275f85" stroke-width="10"/><text x="525" y="350" text-anchor="middle" font-family="Georgia,serif" font-size="92" font-weight="700" fill="#17110c">Phlegm</text><path d="M350 405h350" stroke="#275f85" stroke-width="6"/><text x="525" y="485" text-anchor="middle" font-family="Georgia,serif" font-size="56" fill="#17110c">cold + wet</text><g transform="translate(525 675)"><ellipse cx="0" cy="0" rx="155" ry="58" fill="#9dc2d7" stroke="#275f85" stroke-width="10"/><path d="M-155 0q18 160 155 160T155 0" fill="#c8dce6" stroke="#275f85" stroke-width="10"/><ellipse cx="0" cy="4" rx="120" ry="32" fill="#6fa4c2" opacity=".8"/><path d="M-90 10q40-26 80 0t80 0" fill="none" stroke="#e8f4f8" stroke-width="8" stroke-linecap="round"/></g><g fill="none" stroke="#275f85" stroke-width="9" stroke-linecap="round"><path d="M300 610q-30 28 0 56t0 56"/><path d="M730 610q30 28 0 56t0 56"/></g></svg>